<?xml version="1.0" encoding="utf-8"?>
<svg width="85" height="85" viewBox="0 0 40.523 40.424" xmlns="http://www.w3.org/2000/svg">
  <defs>
    <filter id="Rectangle_116" x="0" y="0" width="85" height="85" filterUnits="userSpaceOnUse">
      <feOffset dy="5" input="SourceAlpha"/>
      <feGaussianBlur stdDeviation="7.5" result="blur"/>
      <feFlood flood-opacity="0.102"/>
      <feComposite operator="in" in2="blur"/>
      <feComposite in="SourceGraphic"/>
    </filter>
  </defs>

     <linearGradient id="MyGradient">
      <stop offset="5%" stop-color="#0756ce" />
      <stop offset="95%" stop-color="#d04329" />
	</linearGradient>


  <g id="Group_146" data-name="Group 146" transform="matrix(1, 0, 0, 1, -1114.837158, -254.895355)">
    <g transform="matrix(1, 0, 0, 1, 1092.5, 237.5)" filter="url(#Rectangle_116)">
      <g id="Rectangle_116-2" data-name="Rectangle 116" transform="translate(22.5 17.5)" fill="none" stroke="url(#MyGradient)" stroke-width="1">
        <rect width="40" height="40" rx="20" stroke="none"/>
        <rect x="0.5" y="0.5" width="39" height="39" rx="19.5" fill="none"/>
      </g>
    </g>
<path d="M.2 10a11 11 0 0 1 19.6 0A11 11 0 0 1 .2 10zm9.8 4a4 4 0 1 0 0-8 4 4 0 0 0 0 8zm0-2a2 2 0 1 1 0-4 2 2 0 0 1 0 4z"/></svg>  </g>
</svg>